<?xml version="1.0" encoding="UTF-8" standalone="no"?>
<!DOCTYPE svg PUBLIC "-//W3C//DTD SVG 1.1//EN" "http://www.w3.org/Graphics/SVG/1.1/DTD/svg11.dtd">
<svg version="1.1" xmlns="http://www.w3.org/2000/svg" xmlns:xlink="http://www.w3.org/1999/xlink" preserveAspectRatio="xMidYMid meet" viewBox="0 0 640 640" width="640" height="640"><defs><path d="M173.19 42.39C322.34 46.8 573.62 40.85 598.77 189.43C623.91 338.01 436.94 617.12 286.06 616.74C155.91 616.35 10.79 375.25 18.85 173.69C49.72 147.43 24.03 37.97 173.19 42.39Z" id="a5fm9MhS37"></path><path d="M296.39 511.02C270.36 511 247.74 502.8 246.96 472.47C246.96 467.78 246.96 430.25 246.96 425.56C229.24 432.44 205.17 431.45 188.67 419.11C178.22 411.29 173.73 401.23 169.62 392.01C165.51 382.78 161.77 374.39 152.8 369.92C136.27 361.67 139.36 352.03 157.29 356.5C175.21 360.97 182.02 371.15 193.13 387.77C193.13 387.78 193.15 387.8 193.15 387.81C201.04 399.6 229.74 404.48 248.74 393.32C250.62 382.58 254.47 372.1 262.38 363.14C186.55 353.15 166.26 311.93 166.26 262.6C166.26 240.38 173.8 219.8 188.09 202.99C181.74 179.59 183.36 158.62 191.4 142.01C212.82 140.57 233.53 149.69 251 165.76C265.84 161.87 282.47 159.75 300.76 159.75C319.04 159.75 335.67 161.87 350.52 165.76C367.99 149.69 388.7 140.57 410.12 142.01C418.16 158.62 419.78 179.59 413.42 202.99C427.71 219.8 435.26 240.38 435.26 262.6C435.26 311.93 414.97 353.15 339.14 363.14C354.56 380.62 354.56 403.84 354.56 423.58C354.56 426.84 354.56 443.14 354.56 472.47C334.26 498.18 314.87 511.03 296.39 511.02Z" id="a2IksGkVR"></path></defs><g><g><g><use xlink:href="#a5fm9MhS37" opacity="1" fill="#211f1f" fill-opacity="1"></use><g><use xlink:href="#a5fm9MhS37" opacity="1" fill-opacity="0" stroke="#000000" stroke-width="1" stroke-opacity="0"></use></g></g><g><use xlink:href="#a2IksGkVR" opacity="1" fill="#ffffff" fill-opacity="1"></use><g><use xlink:href="#a2IksGkVR" opacity="1" fill-opacity="0" stroke="#000000" stroke-width="1" stroke-opacity="0"></use></g></g></g></g></svg>